<?xml version="1.0" standalone="no"?><svg xmlns="http://www.w3.org/2000/svg" viewBox="0 0 1440 320"><path fill="#212121" fill-opacity="1" d="M0,160L24,144C48,128,96,96,144,90.7C192,85,240,107,288,138.7C336,171,384,213,432,224C480,235,528,213,576,197.3C624,181,672,171,720,170.7C768,171,816,181,864,186.7C912,192,960,192,1008,208C1056,224,1104,256,1152,250.7C1200,245,1248,203,1296,197.3C1344,192,1392,224,1416,240L1440,256L1440,0L1416,0C1392,0,1344,0,1296,0C1248,0,1200,0,1152,0C1104,0,1056,0,1008,0C960,0,912,0,864,0C816,0,768,0,720,0C672,0,624,0,576,0C528,0,480,0,432,0C384,0,336,0,288,0C240,0,192,0,144,0C96,0,48,0,24,0L0,0Z"></path></svg>